<?xml version="1.0" ?><!DOCTYPE svg  PUBLIC '-//W3C//DTD SVG 1.1//EN'  'http://www.w3.org/Graphics/SVG/1.1/DTD/svg11.dtd'><svg height="100%" style="fill-rule:evenodd;clip-rule:evenodd;stroke-linejoin:round;stroke-miterlimit:2;" version="1.1" viewBox="0 0 32 32" width="100%" xml:space="preserve" xmlns="http://www.w3.org/2000/svg" xmlns:serif="http://www.serif.com/" xmlns:xlink="http://www.w3.org/1999/xlink"><path d="M29.486,23.398l0.014,0.105l0,4.997l-27,0l-0,-1.795c-0,0 1.657,-1.724 3.403,-2.552c0.323,-0.153 1.39,-0.262 2.748,-0.342c3.168,-0.189 7.913,-0.308 8.494,-0.308c0.659,-0 2.199,-1.002 3.062,-1.734c0.934,-0.791 2.166,-1.387 4.293,-1.269c2.552,0.142 3.78,0.693 4.391,1.412c0.382,0.45 0.523,0.965 0.595,1.486Z" style="fill:#f4d160;"/><path d="M4.773,14.5l13.416,-0l-0,0.001l0.002,0.007c-0.008,0.006 -0.002,0.015 0.008,0.023c0.007,0.011 0.015,0.018 0.022,0.011l0.006,0.003l0.002,-0l-1.173,9.582c-0.061,0.502 -0.487,0.879 -0.992,0.879c-0,-0 -9.166,-0 -9.166,-0c-0.505,-0 -0.931,-0.377 -0.993,-0.879l-1.177,-9.627c0.01,0.081 0.039,0.035 0.045,-0Z" style="fill:#8ac4d0;"/><path d="M19.499,12.5l0.001,1c-0,0.552 -0.448,1 -1,1c0,-0 -14,-0 -14,-0c-0.552,-0 -1,-0.448 -1,-1l-0,-1l15.999,0Z" style="fill:#28527a;"/><path d="M4.724,12.161l0.004,-0.01c0.307,-0.649 0.891,-1.72 1.717,-2.529c0.551,-0.54 1.21,-0.964 1.966,-1.068c1.248,-0.173 2.249,-0.952 3.204,-1.467c0.956,-0.516 1.867,-0.768 2.934,0.113c0.531,0.438 0.854,0.786 1.063,1.077c0.218,0.303 0.578,0.957 0.94,1.501c0.24,0.362 0.481,0.676 0.68,0.804c0.804,0.518 0.937,1.277 0.974,1.762c0,0.001 -0.001,0.003 -0.002,0.004c-0.003,0.002 -0.009,0.005 -0.017,0.007c-0.034,0.009 -0.111,0.017 -0.226,0.025c-1.439,0.099 -8.823,0.098 -11.893,-0.06c-0.615,-0.031 -1.056,-0.069 -1.243,-0.114c-0.046,-0.011 -0.077,-0.023 -0.091,-0.035l-0.01,-0.01Z" style="fill:#f4d160;"/><path d="M18.895,6.239c-0,0 1.49,1.491 1.49,1.491l-2.92,2.921c0.058,-0.058 0.003,-0.054 -0.028,-0.037l-1.252,-1.665l2.71,-2.71Z" style="fill:#8ac4d0;"/><path d="M18.271,5.616l-0.007,-0.007c-0.372,-0.377 -0.372,-0.988 0.003,-1.368l0.021,-0.02c0.387,-0.393 1.019,-0.397 1.412,-0.01c0,-0 2.906,2.865 2.906,2.865c0.388,0.389 0.39,1.017 0.005,1.408c-0.191,0.19 -0.471,0.292 -0.746,0.301c-0.249,0.008 -0.501,-0.059 -0.663,-0.244c-0.007,-0.009 -0.015,-0.017 -0.023,-0.025l-2.908,-2.9Z" style="fill:#28527a;"/><path d="M17.925,3.876l-0.013,0.014c-0.571,0.577 -0.568,1.506 0.006,2.079l0.27,0.27l-2.001,2.001c-0.062,-0.099 -0.119,-0.186 -0.169,-0.255c-0.227,-0.316 -0.575,-0.696 -1.15,-1.171c-1.271,-1.048 -2.353,-0.781 -3.49,-0.167c-0.908,0.489 -1.85,1.248 -3.036,1.412c-0.861,0.119 -1.618,0.59 -2.247,1.205c-0.859,0.842 -1.538,2.044 -1.869,2.736l-0.726,0c-0.276,-0 -0.5,0.224 -0.5,0.5l-0,1c0,0.755 0.557,1.379 1.283,1.484l1.086,8.879c-1.697,0.906 -3.229,2.495 -3.229,2.495c-0.09,0.093 -0.14,0.218 -0.14,0.347l-0,1.795c-0,0.276 0.224,0.5 0.5,0.5l27,0c0.276,0 0.5,-0.224 0.5,-0.5c0,0 -0.001,-5.038 -0.004,-5.058c-0.08,-0.651 -0.248,-1.293 -0.724,-1.853c-0.662,-0.78 -1.976,-1.434 -4.744,-1.588c-2.29,-0.127 -3.565,0.579 -4.62,1.367c-0.739,0.552 -1.342,1.168 -2.191,1.478l0.961,-7.856c0.744,-0.088 1.322,-0.722 1.322,-1.49l-0.001,-1.04l-0.003,-0.02c-0.029,-0.248 -0.24,-0.44 -0.496,-0.44l-0.83,0c-0.06,-0.395 -0.2,-0.866 -0.552,-1.296l2.27,-2.269l0.438,0.437c0.59,0.581 1.539,0.574 2.12,-0.015c0.579,-0.587 0.596,-1.552 0.013,-2.135c-0,0 -2.814,-2.775 -2.908,-2.867c-0.585,-0.576 -1.543,-0.554 -2.126,0.021Zm-12.27,20.97c-1.2,0.68 -2.28,1.695 -2.655,2.065c-0,-0 -0,1.089 0,1.089c0,0 26,-0 26,-0c0,-0 0,-4.466 -0,-4.469c-0.058,-0.453 -0.159,-0.906 -0.49,-1.295c-0.559,-0.658 -1.701,-1.107 -4.038,-1.237c-2.377,-0.132 -3.487,0.783 -4.523,1.605c-0.721,0.571 -1.416,1.096 -2.365,1.323l-0.031,0.261c-0.093,0.752 -0.731,1.318 -1.489,1.318l-9.166,-0c-0.513,-0 -0.972,-0.259 -1.243,-0.66Zm-0.362,-9.846l12.376,-0l-1.109,9.067c-0.031,0.25 -0.244,0.439 -0.496,0.439c-0,-0 -9.166,-0 -9.166,-0c-0.253,-0 -0.466,-0.189 -0.496,-0.439l-1.109,-9.067Zm-1.293,-2l-0,0.5c-0,0.276 0.224,0.5 0.5,0.5c-0,-0 14,-0 14,-0c0.276,-0 0.5,-0.224 0.5,-0.5l-0,-0.5l-15,0Zm13.653,-1c-0.075,-0.332 -0.251,-0.713 -0.691,-0.997c-0.187,-0.121 -0.412,-0.363 -0.636,-0.672c-0.417,-0.577 -0.866,-1.409 -1.12,-1.762c-0.191,-0.266 -0.489,-0.583 -0.975,-0.983c-0.865,-0.714 -1.604,-0.477 -2.378,-0.059c-1.004,0.541 -2.063,1.341 -3.374,1.522c-0.65,0.09 -1.21,0.466 -1.684,0.93c-0.639,0.626 -1.122,1.419 -1.434,2.021l12.292,0Zm-5.096,-3.238c0,0 -0.851,1.626 0.662,2.652c0.229,0.155 0.54,0.095 0.695,-0.133c0.155,-0.229 0.095,-0.54 -0.133,-0.695c-0.776,-0.526 -0.338,-1.36 -0.338,-1.36c0.128,-0.244 0.034,-0.547 -0.211,-0.675c-0.244,-0.128 -0.547,-0.033 -0.675,0.211Zm6.339,-1.816l-2.173,2.172c0.081,0.13 0.163,0.259 0.245,0.383c0.141,0.212 0.274,0.409 0.398,0.541l2.314,-2.314l-0.784,-0.782Zm3.356,0.483c-0,0 -2.809,-2.769 -2.903,-2.862c-0.196,-0.193 -0.521,-0.182 -0.715,0.014c-0.184,0.186 -0.194,0.497 -0.009,0.681l2.903,2.898c0.196,0.193 0.523,0.18 0.717,-0.017c0.193,-0.195 0.201,-0.52 0.007,-0.714Zm-4.34,-3.539c-0.007,0.006 0.006,-0.007 -0,-0l0.002,-0.002l-0.002,0.002Z" id="Sand-toys"/></svg>